<mxfile host="app.diagrams.net" agent="Mozilla/5.0 (Windows NT 10.0; Win64; x64) AppleWebKit/537.36 (KHTML, like Gecko) Chrome/129.0.0.0 Safari/537.36" version="24.7.17">
  <diagram name="Side-1" id="5PWZhnLOO64Eeo9xUPaG">
    <mxGraphModel dx="1049" dy="552" grid="1" gridSize="10" guides="1" tooltips="1" connect="1" arrows="1" fold="1" page="1" pageScale="1" pageWidth="827" pageHeight="1169" math="0" shadow="0">
      <root>
        <mxCell id="0" />
        <mxCell id="1" parent="0" />
        <mxCell id="JOUH1URA4CEPNsV2kuOo-4" style="rounded=0;orthogonalLoop=1;jettySize=auto;html=1;exitX=1;exitY=0;exitDx=0;exitDy=0;entryX=0;entryY=0.5;entryDx=0;entryDy=0;curved=1;" edge="1" parent="1" source="JOUH1URA4CEPNsV2kuOo-1" target="JOUH1URA4CEPNsV2kuOo-3">
          <mxGeometry relative="1" as="geometry">
            <Array as="points">
              <mxPoint x="260" y="240" />
            </Array>
          </mxGeometry>
        </mxCell>
        <mxCell id="JOUH1URA4CEPNsV2kuOo-14" style="rounded=0;orthogonalLoop=1;jettySize=auto;html=1;entryX=0.015;entryY=0.391;entryDx=0;entryDy=0;curved=1;entryPerimeter=0;" edge="1" parent="1" source="JOUH1URA4CEPNsV2kuOo-1" target="JOUH1URA4CEPNsV2kuOo-10">
          <mxGeometry relative="1" as="geometry">
            <Array as="points">
              <mxPoint x="250" y="420" />
            </Array>
          </mxGeometry>
        </mxCell>
        <mxCell id="JOUH1URA4CEPNsV2kuOo-1" value="&lt;font style=&quot;font-size: 16px;&quot;&gt;CLK&lt;/font&gt;" style="ellipse;whiteSpace=wrap;html=1;aspect=fixed;" vertex="1" parent="1">
          <mxGeometry x="160" y="270" width="80" height="80" as="geometry" />
        </mxCell>
        <mxCell id="JOUH1URA4CEPNsV2kuOo-2" value="" style="endArrow=none;html=1;rounded=0;" edge="1" parent="1">
          <mxGeometry width="50" height="50" relative="1" as="geometry">
            <mxPoint x="250" y="230" as="sourcePoint" />
            <mxPoint x="290" y="200" as="targetPoint" />
            <Array as="points">
              <mxPoint x="270" y="230" />
              <mxPoint x="270" y="200" />
            </Array>
          </mxGeometry>
        </mxCell>
        <mxCell id="JOUH1URA4CEPNsV2kuOo-3" value="&lt;font style=&quot;font-size: 16px;&quot;&gt;Save&amp;nbsp;&lt;/font&gt;&lt;div&gt;&lt;font style=&quot;font-size: 16px;&quot;&gt;adress to ADDR&amp;nbsp;&lt;/font&gt;&lt;/div&gt;&lt;div&gt;&lt;font style=&quot;font-size: 16px;&quot;&gt;Buffer&lt;/font&gt;&lt;/div&gt;" style="ellipse;whiteSpace=wrap;html=1;aspect=fixed;" vertex="1" parent="1">
          <mxGeometry x="394" y="180" width="100" height="100" as="geometry" />
        </mxCell>
        <mxCell id="JOUH1URA4CEPNsV2kuOo-6" value="" style="endArrow=classic;html=1;rounded=0;" edge="1" parent="1">
          <mxGeometry width="50" height="50" relative="1" as="geometry">
            <mxPoint x="270" y="220" as="sourcePoint" />
            <mxPoint x="270" y="210" as="targetPoint" />
          </mxGeometry>
        </mxCell>
        <mxCell id="JOUH1URA4CEPNsV2kuOo-7" value="Rising&lt;br style=&quot;font-size: 14px;&quot;&gt;Edge" style="text;html=1;align=center;verticalAlign=middle;resizable=0;points=[];autosize=1;strokeColor=none;fillColor=none;fontSize=14;" vertex="1" parent="1">
          <mxGeometry x="210" y="185" width="60" height="50" as="geometry" />
        </mxCell>
        <mxCell id="JOUH1URA4CEPNsV2kuOo-40" style="rounded=0;orthogonalLoop=1;jettySize=auto;html=1;exitX=0.769;exitY=0.923;exitDx=0;exitDy=0;curved=1;entryX=0;entryY=0.5;entryDx=0;entryDy=0;exitPerimeter=0;" edge="1" parent="1" source="JOUH1URA4CEPNsV2kuOo-10" target="JOUH1URA4CEPNsV2kuOo-23">
          <mxGeometry relative="1" as="geometry">
            <Array as="points">
              <mxPoint x="420" y="510" />
            </Array>
          </mxGeometry>
        </mxCell>
        <mxCell id="JOUH1URA4CEPNsV2kuOo-10" value="&lt;font style=&quot;font-size: 16px;&quot;&gt;R/W&lt;/font&gt;" style="ellipse;whiteSpace=wrap;html=1;aspect=fixed;" vertex="1" parent="1">
          <mxGeometry x="334" y="410" width="80" height="80" as="geometry" />
        </mxCell>
        <mxCell id="JOUH1URA4CEPNsV2kuOo-11" value="" style="endArrow=none;html=1;rounded=0;" edge="1" parent="1">
          <mxGeometry width="50" height="50" relative="1" as="geometry">
            <mxPoint x="220" y="445" as="sourcePoint" />
            <mxPoint x="260" y="415" as="targetPoint" />
            <Array as="points">
              <mxPoint x="240" y="445" />
              <mxPoint x="240" y="415" />
            </Array>
          </mxGeometry>
        </mxCell>
        <mxCell id="JOUH1URA4CEPNsV2kuOo-12" value="" style="endArrow=classic;html=1;rounded=0;" edge="1" parent="1">
          <mxGeometry width="50" height="50" relative="1" as="geometry">
            <mxPoint x="240" y="425" as="sourcePoint" />
            <mxPoint x="240" y="435" as="targetPoint" />
          </mxGeometry>
        </mxCell>
        <mxCell id="JOUH1URA4CEPNsV2kuOo-13" value="Falling&lt;br style=&quot;font-size: 14px;&quot;&gt;Edge" style="text;html=1;align=center;verticalAlign=middle;resizable=0;points=[];autosize=1;strokeColor=none;fillColor=none;fontSize=14;" vertex="1" parent="1">
          <mxGeometry x="180" y="400" width="60" height="50" as="geometry" />
        </mxCell>
        <mxCell id="JOUH1URA4CEPNsV2kuOo-15" value="" style="endArrow=none;html=1;rounded=0;" edge="1" parent="1">
          <mxGeometry width="50" height="50" relative="1" as="geometry">
            <mxPoint x="374" y="441" as="sourcePoint" />
            <mxPoint x="389" y="441" as="targetPoint" />
          </mxGeometry>
        </mxCell>
        <mxCell id="JOUH1URA4CEPNsV2kuOo-16" value="&lt;font style=&quot;font-size: 14px;&quot;&gt;if(RW)&lt;/font&gt;" style="text;html=1;align=center;verticalAlign=middle;resizable=0;points=[];autosize=1;strokeColor=none;fillColor=none;" vertex="1" parent="1">
          <mxGeometry x="320" y="380" width="60" height="30" as="geometry" />
        </mxCell>
        <mxCell id="JOUH1URA4CEPNsV2kuOo-17" value="&lt;font style=&quot;font-size: 16px;&quot;&gt;Read data from ADDR&lt;/font&gt;&lt;div style=&quot;font-size: 16px;&quot;&gt;&lt;font style=&quot;font-size: 16px;&quot;&gt;Buffer adress&lt;/font&gt;&lt;/div&gt;" style="ellipse;whiteSpace=wrap;html=1;" vertex="1" parent="1">
          <mxGeometry x="580" y="330" width="150" height="100" as="geometry" />
        </mxCell>
        <mxCell id="JOUH1URA4CEPNsV2kuOo-18" style="rounded=0;orthogonalLoop=1;jettySize=auto;html=1;exitX=1;exitY=0;exitDx=0;exitDy=0;entryX=0.025;entryY=0.343;entryDx=0;entryDy=0;entryPerimeter=0;curved=1;" edge="1" parent="1" source="JOUH1URA4CEPNsV2kuOo-10" target="JOUH1URA4CEPNsV2kuOo-17">
          <mxGeometry relative="1" as="geometry">
            <Array as="points">
              <mxPoint x="480" y="350" />
            </Array>
          </mxGeometry>
        </mxCell>
        <mxCell id="JOUH1URA4CEPNsV2kuOo-19" value="&lt;font style=&quot;font-size: 14px;&quot;&gt;if(RW) = 1&lt;/font&gt;" style="text;html=1;align=center;verticalAlign=middle;resizable=0;points=[];autosize=1;strokeColor=none;fillColor=none;" vertex="1" parent="1">
          <mxGeometry x="414" y="340" width="90" height="30" as="geometry" />
        </mxCell>
        <mxCell id="JOUH1URA4CEPNsV2kuOo-21" style="rounded=0;orthogonalLoop=1;jettySize=auto;html=1;entryX=0.198;entryY=0.09;entryDx=0;entryDy=0;entryPerimeter=0;dashed=1;dashPattern=8 8;curved=1;" edge="1" parent="1" source="JOUH1URA4CEPNsV2kuOo-3" target="JOUH1URA4CEPNsV2kuOo-17">
          <mxGeometry relative="1" as="geometry">
            <Array as="points">
              <mxPoint x="580" y="250" />
            </Array>
          </mxGeometry>
        </mxCell>
        <mxCell id="JOUH1URA4CEPNsV2kuOo-23" value="&lt;span style=&quot;font-size: 16px;&quot;&gt;Write data to ADDR Buffer adress&lt;/span&gt;" style="ellipse;whiteSpace=wrap;html=1;" vertex="1" parent="1">
          <mxGeometry x="494" y="450" width="150" height="100" as="geometry" />
        </mxCell>
        <mxCell id="JOUH1URA4CEPNsV2kuOo-24" style="rounded=0;orthogonalLoop=1;jettySize=auto;html=1;exitX=1;exitY=1;exitDx=0;exitDy=0;entryX=0.37;entryY=0;entryDx=0;entryDy=0;entryPerimeter=0;dashed=1;dashPattern=8 8;curved=1;" edge="1" parent="1" source="JOUH1URA4CEPNsV2kuOo-3" target="JOUH1URA4CEPNsV2kuOo-23">
          <mxGeometry relative="1" as="geometry">
            <Array as="points">
              <mxPoint x="530" y="330" />
            </Array>
          </mxGeometry>
        </mxCell>
        <mxCell id="JOUH1URA4CEPNsV2kuOo-25" value="&lt;font style=&quot;font-size: 16px;&quot;&gt;Read data from ADDR&lt;/font&gt;&lt;div style=&quot;font-size: 16px;&quot;&gt;&lt;font style=&quot;font-size: 16px;&quot;&gt;Buffer adress&lt;/font&gt;&lt;/div&gt;" style="ellipse;whiteSpace=wrap;html=1;" vertex="1" parent="1">
          <mxGeometry x="750" y="450" width="150" height="100" as="geometry" />
        </mxCell>
        <mxCell id="JOUH1URA4CEPNsV2kuOo-26" style="rounded=0;orthogonalLoop=1;jettySize=auto;html=1;entryX=0.299;entryY=0.038;entryDx=0;entryDy=0;entryPerimeter=0;curved=1;exitX=0.987;exitY=0.623;exitDx=0;exitDy=0;exitPerimeter=0;" edge="1" parent="1" source="JOUH1URA4CEPNsV2kuOo-17" target="JOUH1URA4CEPNsV2kuOo-25">
          <mxGeometry relative="1" as="geometry">
            <Array as="points">
              <mxPoint x="780" y="410" />
            </Array>
          </mxGeometry>
        </mxCell>
        <mxCell id="JOUH1URA4CEPNsV2kuOo-30" value="&lt;span style=&quot;font-size: 16px;&quot;&gt;Set ADDR buffer&lt;/span&gt;&lt;div&gt;&lt;span style=&quot;font-size: 16px;&quot;&gt;to 0&lt;/span&gt;&lt;/div&gt;" style="ellipse;whiteSpace=wrap;html=1;" vertex="1" parent="1">
          <mxGeometry x="600" y="590" width="150" height="100" as="geometry" />
        </mxCell>
        <mxCell id="JOUH1URA4CEPNsV2kuOo-31" style="rounded=0;orthogonalLoop=1;jettySize=auto;html=1;entryX=1;entryY=0.5;entryDx=0;entryDy=0;strokeColor=default;curved=1;" edge="1" parent="1" target="JOUH1URA4CEPNsV2kuOo-30">
          <mxGeometry relative="1" as="geometry">
            <mxPoint x="870" y="540" as="sourcePoint" />
            <Array as="points">
              <mxPoint x="890" y="620" />
            </Array>
          </mxGeometry>
        </mxCell>
        <mxCell id="JOUH1URA4CEPNsV2kuOo-32" style="rounded=0;orthogonalLoop=1;jettySize=auto;html=1;exitX=0.984;exitY=0.632;exitDx=0;exitDy=0;exitPerimeter=0;strokeColor=default;curved=1;entryX=0.563;entryY=0.002;entryDx=0;entryDy=0;entryPerimeter=0;" edge="1" parent="1" source="JOUH1URA4CEPNsV2kuOo-23" target="JOUH1URA4CEPNsV2kuOo-30">
          <mxGeometry relative="1" as="geometry">
            <mxPoint x="690" y="590" as="targetPoint" />
            <Array as="points">
              <mxPoint x="690" y="530" />
            </Array>
          </mxGeometry>
        </mxCell>
        <mxCell id="JOUH1URA4CEPNsV2kuOo-33" style="rounded=0;orthogonalLoop=1;jettySize=auto;html=1;entryX=0.019;entryY=0.644;entryDx=0;entryDy=0;entryPerimeter=0;curved=1;" edge="1" parent="1" source="JOUH1URA4CEPNsV2kuOo-30" target="JOUH1URA4CEPNsV2kuOo-1">
          <mxGeometry relative="1" as="geometry">
            <Array as="points">
              <mxPoint x="380" y="630" />
              <mxPoint x="140" y="560" />
              <mxPoint x="100" y="340" />
            </Array>
          </mxGeometry>
        </mxCell>
        <mxCell id="JOUH1URA4CEPNsV2kuOo-35" value="" style="endArrow=none;html=1;rounded=0;endFill=0;dashed=1;dashPattern=8 8;" edge="1" parent="1">
          <mxGeometry width="50" height="50" relative="1" as="geometry">
            <mxPoint x="160" y="680" as="sourcePoint" />
            <mxPoint x="200" y="680" as="targetPoint" />
          </mxGeometry>
        </mxCell>
        <mxCell id="JOUH1URA4CEPNsV2kuOo-37" value="&lt;font style=&quot;font-size: 14px;&quot;&gt;Data connection&lt;/font&gt;" style="text;html=1;align=center;verticalAlign=middle;resizable=0;points=[];autosize=1;strokeColor=none;fillColor=none;" vertex="1" parent="1">
          <mxGeometry x="197" y="665" width="120" height="30" as="geometry" />
        </mxCell>
        <mxCell id="JOUH1URA4CEPNsV2kuOo-38" value="" style="endArrow=none;html=1;rounded=0;" edge="1" parent="1">
          <mxGeometry width="50" height="50" relative="1" as="geometry">
            <mxPoint x="160" y="720" as="sourcePoint" />
            <mxPoint x="200" y="720" as="targetPoint" />
          </mxGeometry>
        </mxCell>
        <mxCell id="JOUH1URA4CEPNsV2kuOo-39" value="&lt;font style=&quot;font-size: 14px;&quot;&gt;State transistion&lt;/font&gt;" style="text;html=1;align=center;verticalAlign=middle;resizable=0;points=[];autosize=1;strokeColor=none;fillColor=none;" vertex="1" parent="1">
          <mxGeometry x="195" y="705" width="120" height="30" as="geometry" />
        </mxCell>
        <mxCell id="JOUH1URA4CEPNsV2kuOo-41" value="&lt;font style=&quot;font-size: 14px;&quot;&gt;if(RW) = 0&lt;/font&gt;" style="text;html=1;align=center;verticalAlign=middle;resizable=0;points=[];autosize=1;strokeColor=none;fillColor=none;" vertex="1" parent="1">
          <mxGeometry x="380" y="510" width="90" height="30" as="geometry" />
        </mxCell>
        <mxCell id="JOUH1URA4CEPNsV2kuOo-42" value="" style="endArrow=none;html=1;rounded=0;" edge="1" parent="1">
          <mxGeometry width="50" height="50" relative="1" as="geometry">
            <mxPoint x="415" y="517" as="sourcePoint" />
            <mxPoint x="430" y="517" as="targetPoint" />
          </mxGeometry>
        </mxCell>
        <mxCell id="JOUH1URA4CEPNsV2kuOo-43" value="" style="endArrow=none;html=1;rounded=0;" edge="1" parent="1">
          <mxGeometry width="50" height="50" relative="1" as="geometry">
            <mxPoint x="448.5" y="346.66999999999996" as="sourcePoint" />
            <mxPoint x="463.5" y="346.66999999999996" as="targetPoint" />
          </mxGeometry>
        </mxCell>
      </root>
    </mxGraphModel>
  </diagram>
</mxfile>
